<svg width="19" height="19" viewBox="0 0 19 19" fill="green" xmlns="http://www.w3.org/2000/svg">
    <path d="M16.0588 1H2.88235C1.83765 1 1 1.84706 1 2.88235V12.2941C1 13.3294 1.83765 14.1765 2.88235 14.1765H6.64706L9.47059 17L12.2941 14.1765H16.0588C17.0941 14.1765 17.9412 13.3294 17.9412 12.2941V2.88235C17.9412 1.84706 17.0941 1 16.0588 1Z" stroke="currentColor" stroke-width="1.88235" classes="[object Object]"></path>
    <path d="M8.5293 11.6666C8.5293 12.0132 8.81022 12.2941 9.15675 12.2941C9.50328 12.2941 9.7842 12.0132 9.7842 11.6666C9.7842 11.3201 9.50328 11.0392 9.15675 11.0392C8.81022 11.0392 8.5293 11.3201 8.5293 11.6666Z" fill="currentColor" classes="[object Object]"></path>
    <path d="M9.15678 4.76465C7.77011 4.76465 6.64697 5.88779 6.64697 7.27445H7.90187C7.90187 6.58426 8.46658 6.01955 9.15678 6.01955C9.84697 6.01955 10.4117 6.58426 10.4117 7.27445C10.4117 8.52935 8.52933 8.37249 8.52933 10.4117H9.78423C9.78423 8.99994 11.6666 8.84308 11.6666 7.27445C11.6666 5.88779 10.5434 4.76465 9.15678 4.76465Z" fill="currentColor" classes="[object Object]"></path>
</svg>