<svg width="20" height="18" viewBox="0 0 20 18" fill="none" xmlns="http://www.w3.org/2000/svg">
    <path fill-rule="evenodd" clip-rule="evenodd" d="M18.85 1.52L19.9 5.89C20.15 6.91 19.92 7.96 19.28 8.78C19.2264 8.84707 19.1592 8.90964 19.0936 8.97073L19.0936 8.97075L19.0936 8.97076L19.0936 8.97078C19.0614 9.00076 19.0296 9.03038 19 9.06V16C19 17.1 18.1 18 17 18H3.00001C1.90001 18 1.00001 17.1 1.00001 16V9.06C0.964006 9.02 0.924806 8.9832 0.885606 8.9464C0.826806 8.8912 0.768006 8.836 0.720007 8.77C0.0800067 7.95 -0.139993 6.91 0.100007 5.89L1.15001 1.52C1.36001 0.63 2.15001 0 3.05001 0H5.26001H7.28001H9.00001H11H12.72H14.73H16.94C17.85 0 18.63 0.62 18.85 1.52ZM4.44001 6.86L5.02001 2H3.05001L2.05001 6.36C1.95001 6.77 2.04001 7.2 2.30001 7.53C2.43001 7.71 2.74001 8 3.23001 8C3.84001 8 4.36001 7.51 4.44001 6.86ZM16.91 1.99L17.96 6.36C18.06 6.78 17.97 7.2 17.71 7.53C17.57 7.71 17.27 8 16.77 8C16.16 8 15.63 7.51 15.56 6.86L14.98 2L16.91 1.99ZM13.18 7.59C13.44 7.3 13.56 6.91 13.51 6.52L12.96 2H11V6.69C11 7.41 11.55 8 12.22 8C12.63 8 12.95 7.85 13.18 7.59ZM9.00001 6.69C9.00001 7.41 8.45001 8 7.71001 8C7.37001 8 7.06001 7.85 6.82001 7.59C6.57001 7.3 6.45001 6.91 6.49001 6.52L7.04001 2H9.00001V6.69ZM4.00001 16H16C16.55 16 17 15.55 17.01 15V9.97C16.9819 9.97351 16.9551 9.97825 16.9286 9.98292C16.8797 9.99157 16.8319 10 16.78 10C15.91 10 15.12 9.64 14.54 9.05C13.94 9.65 13.14 10 12.3 10C11.4 10 10.6 9.64 10.01 9.07C9.43001 9.64 8.65001 10 7.78001 10C6.87001 10 6.07001 9.65 5.47001 9.05C4.89001 9.64 4.10001 10 3.23001 10C3.17808 10 3.13036 9.99157 3.08139 9.98292C3.05492 9.97825 3.02808 9.97351 3.00001 9.97V15C3.00001 15.55 3.45001 16 4.00001 16Z" fill="currentColor"></path>
</svg>